<?xml version="1.0" encoding="utf-8"?>
<svg xmlns="http://www.w3.org/2000/svg" viewBox="0 0 671 152.0001" width="671px" height="152px">
  <path d="M95.7485 123.567C94.5414 124.104 93.4571 124.589 92.3712 125.069C88.1162 126.949 83.8088 128.681 79.3037 129.856C72.4667 131.639 65.5607 132.198 58.523 131.347C51.9555 130.554 45.6906 128.736 39.6069 126.168C30.7809 122.439 22.9973 117.163 16.4868 110.038C11.3062 104.369 7.42262 97.8576 4.61142 90.6779C2.37834 84.9769 0.793761 79.1149 0.268065 72.9869C-0.205211 67.4623 -0.0794034 61.9529 0.867149 56.4815C2.5311 46.8579 6.07468 37.9911 11.4889 29.9253C15.4653 24.0025 20.3553 18.9399 25.9538 14.5552C31.69 10.0641 37.9325 6.51373 44.7156 3.98776C52.9859 0.907042 61.5259 -0.504889 70.3639 0.162321C76.6962 0.64107 82.7978 2.04084 88.5685 4.75224C95.8998 8.19771 102.644 12.5961 108.833 17.8624C111.811 20.3975 114.2 23.4843 116.618 26.5589C119.966 30.8175 122.85 35.3588 125.155 40.2648C127.359 44.9596 129.377 49.7638 130.122 54.9404C130.645 58.5606 130.915 62.2462 130.954 65.906C131.054 75.4278 130.961 84.9526 130.954 94.4759C130.943 107.367 130.951 120.26 130.931 133.151C130.924 138.176 129.372 142.703 126.461 146.743C124.171 149.921 120.877 151.339 117.169 151.803C113.323 152.283 109.551 151.938 105.993 150.192C102.496 148.476 100.059 145.728 98.3845 142.223C96.3311 137.925 95.7755 133.331 95.75 128.628C95.741 126.988 95.7485 121.972 95.7485 120.187V123.567ZM95.7485 120.187L95.9507 108.998C96.0211 94.4866 96.0316 79.9752 96.0541 65.4637C96.0586 62.8557 96.0541 60.2476 95.4011 57.6913C94.155 52.8141 92.1391 48.3108 88.7602 44.5842C86.1572 41.7117 82.9551 39.549 79.5388 37.789C77.5738 36.7768 75.525 35.7874 73.3997 35.2645C66.0579 33.4574 58.9244 34.2675 51.981 37.33C43.7301 40.9685 38.5196 47.2545 35.7967 55.8401C34.4248 60.1656 33.9456 64.5701 34.2885 69.1007C34.7783 75.557 37.1791 81.1561 41.4581 85.9208C45.0601 89.9316 48.0413 92.2511 52.9973 94.3104C58.4579 96.5811 66.9073 95.7756 72.66 94.3105L95.7485 120.187Z" fill="white"/>
  <path d="M229.998 122H215.564V96.1189C212.581 100.416 207.77 102.662 202.093 102.662C191.316 102.662 179 94.6539 179 77.8556C179 62.327 189.584 51.8769 204.691 51.8769C219.221 51.8769 229.998 61.5456 229.998 77.758V122ZM204.595 88.9894C211.138 88.9894 215.564 84.2038 215.564 77.2696C215.564 70.3355 211.138 65.5499 204.595 65.5499C198.052 65.5499 193.626 70.3355 193.626 77.2696C193.626 84.2038 198.052 88.9894 204.595 88.9894Z" fill="white"/>
  <path d="M265.831 102.662C251.782 102.662 242.352 94.4586 242.352 78.1486V53.1465H256.786V78.1486C256.786 85.7665 260.442 88.9894 265.831 88.9894C271.219 88.9894 274.875 85.7665 274.875 78.1486V53.1465H289.309V78.1486C289.309 94.3609 279.879 102.662 265.831 102.662Z" fill="white"/>
  <path d="M322.692 102.662C312.107 102.662 299.695 94.6539 299.695 77.8556C299.695 62.327 310.279 51.8769 325.386 51.8769C340.3 51.8769 350.692 61.9363 350.692 77.758V101.393H337.414V93.3843C334.912 99.3418 329.523 102.662 322.692 102.662ZM325.29 88.9894C331.833 88.9894 336.259 84.2038 336.259 77.2696C336.259 70.3355 331.833 65.5499 325.29 65.5499C318.747 65.5499 314.32 70.3355 314.32 77.2696C314.32 84.2038 318.747 88.9894 325.29 88.9894Z" fill="white"/>
  <path d="M364.587 101.393V32.051H379.02V101.393H364.587Z" fill="white"/>
  <path d="M401.658 48.7516C396.366 48.7516 392.421 44.7473 392.421 39.3758C392.421 34.0042 396.366 30 401.658 30C406.951 30 410.896 34.0042 410.896 39.3758C410.896 44.7473 406.951 48.7516 401.658 48.7516ZM394.442 101.393V53.1465H408.875V101.393H394.442Z" fill="white"/>
  <path d="M430.84 102.662C425.548 102.662 421.603 98.6582 421.603 93.2866C421.603 87.9151 425.548 83.9108 430.84 83.9108C436.132 83.9108 440.077 87.9151 440.077 93.2866C440.077 98.6582 436.132 102.662 430.84 102.662Z" fill="white"/>
  <path d="M473.934 102.662C458.923 102.662 448.339 91.9193 448.339 77.2696C448.339 62.62 458.923 51.8769 473.934 51.8769C487.116 51.8769 496.738 60.1783 498.759 72.0934H484.133C482.497 68.0892 478.745 65.5499 473.934 65.5499C467.391 65.5499 462.964 70.3355 462.964 77.2696C462.964 84.2038 467.391 88.9894 473.934 88.9894C478.745 88.9894 482.497 86.4501 484.133 82.4459H498.759C496.738 94.3609 487.116 102.662 473.934 102.662Z" fill="white"/>
  <path d="M510.506 101.393V32.051H524.939V58.3227C527.826 54.1231 531.867 51.8769 536.774 51.8769C546.781 51.8769 557.462 58.7134 557.462 76.3907V101.393H543.029V76.3907C543.029 68.7728 539.372 65.5499 533.984 65.5499C528.788 65.5499 524.939 68.9682 524.939 76.3907V101.393H510.506Z" fill="white"/>
  <path d="M590.809 102.662C580.224 102.662 567.812 94.6539 567.812 77.8556C567.812 62.327 578.396 51.8769 593.503 51.8769C608.417 51.8769 618.809 61.9363 618.809 77.758V101.393H605.531V93.3843C603.029 99.3418 597.641 102.662 590.809 102.662ZM593.407 88.9894C599.95 88.9894 604.376 84.2038 604.376 77.2696C604.376 70.3355 599.95 65.5499 593.407 65.5499C586.864 65.5499 582.438 70.3355 582.438 77.2696C582.438 84.2038 586.864 88.9894 593.407 88.9894Z" fill="white"/>
  <path d="M651.082 102.662C639.247 102.662 631.164 96.1189 631.164 82.3482V36.0552H645.597V53.1465H668.113V66.3312H645.597V82.3482C645.597 87.4268 647.907 88.9894 651.082 88.9894C654.257 88.9894 656.567 87.4268 656.567 82.3482V80.8832H671V82.3482C671 96.1189 662.917 102.662 651.082 102.662Z" fill="white"/>
</svg>


